<svg width="32" height="32" viewBox="0 0 32 32" fill="none" xmlns="http://www.w3.org/2000/svg">
<rect width="32" height="32" rx="5" fill="white"/>
<path d="M25.3036 7.76815C24.766 7.20759 24.1278 6.76292 23.4253 6.45954C22.7228 6.15615 21.9699 6 21.2095 6C20.4491 6 19.6961 6.15615 18.9936 6.45954C18.2912 6.76292 17.6529 7.20759 17.1153 7.76815L15.9997 8.93095L14.8841 7.76815C13.7983 6.6364 12.3256 6.00059 10.79 6.00059C9.25437 6.00059 7.78167 6.6364 6.69584 7.76815C5.61001 8.89989 5 10.4349 5 12.0354C5 13.6359 5.61001 15.1709 6.69584 16.3027L7.81147 17.4655L15.9997 26L24.188 17.4655L25.3036 16.3027C25.8414 15.7424 26.268 15.0771 26.5591 14.3449C26.8502 13.6128 27 12.828 27 12.0354C27 11.2429 26.8502 10.4581 26.5591 9.72587C26.268 8.99368 25.8414 8.32844 25.3036 7.76815Z" fill="#FF6C75"/>
</svg>
