<svg width="512" height="512" viewBox="0 0 512 512" fill="none" xmlns="http://www.w3.org/2000/svg">
<path d="M248 9.2373C252.795 6.4685 258.67 6.38179 263.533 8.97754L264 9.2373L465.703 125.69C470.653 128.549 473.703 133.831 473.703 139.547V372.453C473.703 377.991 470.84 383.121 466.161 386.034L465.703 386.31L264 502.763C259.204 505.531 253.33 505.618 248.468 503.022L248 502.763L46.2976 386.31C41.3472 383.451 38.2977 378.169 38.2976 372.453V139.547C38.2976 134.009 41.1594 128.88 45.8386 125.966L46.2976 125.69L248 9.2373Z" fill="white" stroke="#006FFF" stroke-width="8"/>
<path d="M349.115 239.277L422.162 196.91L349.115 324.011M349.115 239.277L276.069 281.644V366.378V451.112L349.115 408.745M349.115 239.277V324.011M349.115 408.745L422.162 366.378L349.115 324.011M349.115 408.745V324.011" stroke="url(#paint0_linear_19_21)" stroke-width="19.4"/>
<path d="M255.5 249.087L278.312 236.144L255.5 223.201L232.688 236.144L255.5 249.087Z" fill="url(#paint1_linear_19_21)"/>
<path d="M278.312 210.258L255.5 197.315L232.688 210.258L255.5 223.201L278.312 210.258Z" fill="url(#paint2_linear_19_21)"/>
<path d="M301.125 223.201L323.938 210.258L301.125 197.315L278.312 210.258L301.125 223.201Z" fill="url(#paint3_linear_19_21)"/>
<path d="M323.938 184.372L301.125 171.429L295.422 174.665L289.719 177.901L284.016 181.136L278.312 184.372L301.125 197.315L323.938 184.372Z" fill="url(#paint4_linear_19_21)"/>
<path d="M323.938 184.372L346.75 197.315L369.563 184.372L346.75 171.429L323.938 184.372Z" fill="url(#paint5_linear_19_21)"/>
<path d="M369.563 158.486L346.75 145.543L323.938 158.486L346.75 171.429L369.563 158.486Z" fill="url(#paint6_linear_19_21)"/>
<path d="M392.375 171.429L415.188 158.486L392.375 145.543L369.563 158.486L392.375 171.429Z" fill="url(#paint7_linear_19_21)"/>
<path d="M415.188 132.6L392.375 119.657L369.563 132.6L392.375 145.543L415.188 132.6Z" fill="url(#paint8_linear_19_21)"/>
<path d="M323.938 132.6L346.75 145.543L369.563 132.6L346.75 119.657L323.938 132.6Z" fill="url(#paint9_linear_19_21)"/>
<path d="M369.563 106.715L346.75 93.7716L323.938 106.715L346.75 119.657L369.563 106.715Z" fill="url(#paint10_linear_19_21)"/>
<path d="M301.125 93.7716L278.312 106.715L284.016 109.95L289.719 113.186L295.422 116.422L301.125 119.657L323.938 106.715L301.125 93.7716Z" fill="url(#paint11_linear_19_21)"/>
<path d="M323.938 80.8287L301.125 67.8858L278.312 80.8287L301.125 93.7716L323.938 80.8287Z" fill="url(#paint12_linear_19_21)"/>
<path d="M255.5 67.8858L232.688 80.8287L255.5 93.7716L278.312 80.8287L255.5 67.8858Z" fill="url(#paint13_linear_19_21)"/>
<path d="M278.312 54.9429L255.5 42L232.688 54.9429L255.5 67.8858L278.312 54.9429Z" fill="url(#paint14_linear_19_21)"/>
<path d="M209.875 67.8858L187.062 80.8287L209.875 93.7716L232.688 80.8287L209.875 67.8858Z" fill="url(#paint15_linear_19_21)"/>
<path d="M187.062 106.715L209.875 119.657L215.578 116.422L221.281 113.186L226.984 109.95L232.688 106.715L209.875 93.7716L187.062 106.715Z" fill="url(#paint16_linear_19_21)"/>
<path d="M164.25 93.7716L141.438 106.715L164.25 119.657L187.062 106.715L164.25 93.7716Z" fill="url(#paint17_linear_19_21)"/>
<path d="M141.438 132.6L164.25 145.543L187.062 132.6L164.25 119.657L141.438 132.6Z" fill="url(#paint18_linear_19_21)"/>
<path d="M118.625 119.657L95.8125 132.6L118.625 145.543L141.438 132.6L118.625 119.657Z" fill="url(#paint19_linear_19_21)"/>
<path d="M95.8125 158.486L118.625 171.429L141.438 158.486L118.625 145.543L95.8125 158.486Z" fill="url(#paint20_linear_19_21)"/>
<path d="M187.062 158.486L164.25 145.543L141.438 158.486L164.25 171.429L187.062 158.486Z" fill="url(#paint21_linear_19_21)"/>
<path d="M141.438 184.372L164.25 197.315L187.062 184.372L164.25 171.429L141.438 184.372Z" fill="url(#paint22_linear_19_21)"/>
<path d="M209.875 197.315L232.688 184.372L226.984 181.136L221.281 177.901L215.578 174.665L209.875 171.429L187.062 184.372L209.875 197.315Z" fill="url(#paint23_linear_19_21)"/>
<path d="M187.062 210.258L209.875 223.201L232.688 210.258L209.875 197.315L187.062 210.258Z" fill="url(#paint24_linear_19_21)"/>
<path d="M255.5 145.543L278.312 158.486L284.016 155.25L289.719 152.015L295.422 148.779L301.125 145.543L295.422 142.308L289.719 139.072L284.016 135.836L278.312 132.6L255.5 145.543Z" fill="url(#paint25_linear_19_21)"/>
<path d="M255.5 145.543L278.312 158.486L284.016 155.25L289.719 152.015L295.422 148.779L301.125 145.543L295.422 142.308L289.719 139.072L284.016 135.836L278.312 132.6L255.5 145.543Z" fill="#E2EFFF"/>
<path d="M255.5 145.543L232.688 132.6L226.984 135.836L221.281 139.072L215.578 142.308L209.875 145.543L215.578 148.779L221.281 152.015L226.984 155.25L232.688 158.486L255.5 145.543Z" fill="url(#paint26_linear_19_21)"/>
<path d="M255.5 145.543L232.688 132.6L226.984 135.836L221.281 139.072L215.578 142.308L209.875 145.543L215.578 148.779L221.281 152.015L226.984 155.25L232.688 158.486L255.5 145.543Z" fill="#E2EFFF"/>
<path d="M164.25 93.7716L141.438 106.715M164.25 93.7716L187.062 106.715M164.25 93.7716L187.062 80.8287M346.75 197.315L323.938 210.258M346.75 197.315L323.938 184.372M346.75 197.315L369.563 184.372M346.75 93.7716L369.563 106.715M346.75 93.7716L323.938 80.8287M346.75 93.7716L323.938 106.715M209.875 67.8858L232.688 54.9429M209.875 67.8858L187.062 80.8287M209.875 67.8858L232.688 80.8287M118.625 119.657L95.8125 132.6M118.625 119.657L141.438 106.715M118.625 119.657L141.438 132.6M164.25 197.315L187.062 210.258M164.25 197.315L141.438 184.372M164.25 197.315L187.062 184.372M209.875 223.201L232.688 236.144M209.875 223.201L187.062 210.258M209.875 223.201L232.688 210.258M118.625 171.429L141.438 184.372M118.625 171.429L95.8125 158.486M118.625 171.429L141.438 158.486M301.125 223.201L323.938 210.258M301.125 223.201L278.312 236.144M301.125 223.201L278.312 210.258M392.375 171.429L369.563 184.372M392.375 171.429L415.188 158.486M392.375 171.429L369.563 158.486M392.375 119.657L415.188 132.6M392.375 119.657L369.563 106.715M392.375 119.657L369.563 132.6M301.125 67.8858L323.938 80.8287M301.125 67.8858L278.312 54.9429M301.125 67.8858L278.312 80.8287M323.938 210.258L301.125 197.315M278.312 236.144L255.5 249.087L232.688 236.144M278.312 236.144L255.5 223.201M232.688 236.144L255.5 223.201M187.062 210.258L209.875 197.315M141.438 184.372L164.25 171.429M95.8125 158.486L73 145.543L95.8125 132.6M95.8125 158.486L118.625 145.543M95.8125 132.6L118.625 145.543M141.438 106.715L164.25 119.657M255.5 145.543L232.688 132.6M255.5 145.543L278.312 158.486M255.5 145.543L278.312 132.6M255.5 145.543L232.688 158.486M209.875 119.657L232.688 132.6M209.875 119.657L187.062 106.715M209.875 119.657L215.578 116.422M209.875 119.657L204.172 122.893M232.688 132.6L238.391 129.365M232.688 132.6L226.984 135.836M187.062 106.715L209.875 93.7716M187.062 106.715L164.25 119.657M301.125 171.429L278.312 158.486M301.125 171.429L323.938 184.372M301.125 171.429L295.422 174.665M301.125 171.429L306.828 168.193M278.312 158.486L284.016 155.25M323.938 184.372L301.125 197.315M323.938 184.372L346.75 171.429M369.563 184.372L346.75 171.429M415.188 158.486L438 145.543L415.188 132.6M415.188 158.486L392.375 145.543M415.188 132.6L392.375 145.543M369.563 106.715L346.75 119.657M323.938 80.8287L301.125 93.7716M278.312 54.9429L255.5 42L232.688 54.9429M278.312 54.9429L255.5 67.8858M232.688 54.9429L255.5 67.8858M187.062 80.8287L209.875 93.7716M301.125 145.543L284.016 155.25M301.125 145.543L295.422 148.779M301.125 145.543L295.422 142.308M255.5 171.429L249.797 168.193M255.5 171.429L261.203 168.193M255.5 171.429L272.609 161.722M209.875 145.543L215.578 148.779M209.875 145.543L238.391 129.365M209.875 145.543L215.578 142.308M232.688 158.486L278.312 132.6M232.688 158.486L209.875 171.429M232.688 158.486L226.984 155.25M232.688 158.486L238.391 161.722M278.312 132.6L301.125 119.657M278.312 132.6L284.016 135.836M278.312 132.6L272.609 129.365M255.5 93.7716L278.312 106.715M255.5 93.7716L232.688 106.715M255.5 93.7716L278.312 80.8287M255.5 93.7716L232.688 80.8287M164.25 145.543L187.062 158.486M164.25 145.543L187.062 132.6M164.25 145.543L141.438 132.6M164.25 145.543L141.438 158.486M255.5 197.315L232.688 184.372M255.5 197.315L278.312 184.372M255.5 197.315L278.312 210.258M255.5 197.315L232.688 210.258M346.75 145.543L323.938 158.486M346.75 145.543L323.938 132.6M346.75 145.543L369.563 158.486M346.75 145.543L369.563 132.6M187.062 158.486L192.766 161.722M187.062 158.486L164.25 171.429M209.875 171.429L215.578 174.665M209.875 171.429L204.172 168.193M209.875 171.429L187.062 184.372M232.688 184.372L226.984 181.136M232.688 184.372L209.875 197.315M278.312 184.372L284.016 181.136M278.312 184.372L301.125 197.315M323.938 158.486L318.234 161.722M323.938 158.486L346.75 171.429M323.938 132.6L318.234 129.365M323.938 132.6L346.75 119.657M301.125 119.657L295.422 116.422M301.125 119.657L306.828 122.893M301.125 119.657L323.938 106.715M278.312 106.715L284.016 109.95M278.312 106.715L301.125 93.7716M232.688 106.715L226.984 109.95M232.688 106.715L209.875 93.7716M187.062 132.6L192.766 129.365M187.062 132.6L164.25 119.657M266.906 126.129L272.609 129.365M266.906 126.129L261.203 122.893M266.906 126.129L289.719 113.186M289.719 139.072L295.422 142.308M289.719 139.072L284.016 135.836M289.719 139.072L312.531 126.129M289.719 152.015L284.016 155.25M289.719 152.015L295.422 148.779M289.719 152.015L312.531 164.958M266.906 164.958L261.203 168.193M266.906 164.958L272.609 161.722M266.906 164.958L289.719 177.901M244.094 164.958L238.391 161.722M244.094 164.958L249.797 168.193M244.094 164.958L221.281 177.901M221.281 152.015L215.578 148.779M221.281 152.015L226.984 155.25M221.281 152.015L198.469 164.958M221.281 139.072L226.984 135.836M221.281 139.072L215.578 142.308M221.281 139.072L198.469 126.129M244.094 126.129L249.797 122.893M244.094 126.129L238.391 129.365M244.094 126.129L221.281 113.186M215.578 148.779L192.766 161.722M226.984 155.25L204.172 168.193M238.391 161.722L215.578 174.665M249.797 168.193L226.984 181.136M261.203 168.193L284.016 181.136M272.609 161.722L284.016 155.25M272.609 161.722L295.422 174.665M284.016 155.25L306.828 168.193M295.422 148.779L318.234 161.722M295.422 142.308L318.234 129.365M284.016 135.836L306.828 122.893M272.609 129.365L295.422 116.422M261.203 122.893L255.5 119.657L249.797 122.893M261.203 122.893L284.016 109.95M249.797 122.893L226.984 109.95M238.391 129.365L215.578 116.422M226.984 135.836L204.172 122.893M215.578 142.308L192.766 129.365M289.719 113.186L284.016 109.95M289.719 113.186L295.422 116.422M312.531 126.129L306.828 122.893M312.531 126.129L318.234 129.365M312.531 164.958L318.234 161.722M312.531 164.958L306.828 168.193M306.828 168.193L295.422 174.665M289.719 177.901L295.422 174.665M289.719 177.901L284.016 181.136M221.281 177.901L226.984 181.136M221.281 177.901L215.578 174.665M198.469 164.958L204.172 168.193M198.469 164.958L192.766 161.722M198.469 126.129L192.766 129.365M198.469 126.129L204.172 122.893M204.172 122.893L215.578 116.422M221.281 113.186L215.578 116.422M221.281 113.186L226.984 109.95M255.5 223.201L232.688 210.258M255.5 223.201L278.312 210.258M278.312 210.258L301.125 197.315M232.688 210.258L209.875 197.315M301.125 197.315L346.75 171.429M346.75 171.429L369.563 158.486M369.563 158.486L392.375 145.543M392.375 145.543L369.563 132.6M369.563 132.6L346.75 119.657M346.75 119.657L323.938 106.715M323.938 106.715L301.125 93.7716M301.125 93.7716L278.312 80.8287M278.312 80.8287L255.5 67.8858M255.5 67.8858L232.688 80.8287M232.688 80.8287L209.875 93.7716M209.875 93.7716L164.25 119.657M164.25 119.657L141.438 132.6M141.438 132.6L118.625 145.543M118.625 145.543L141.438 158.486M141.438 158.486L164.25 171.429M164.25 171.429L187.062 184.372M187.062 184.372L209.875 197.315" stroke="url(#paint27_linear_19_21)" stroke-width="1.552"/>
<path d="M234.836 324.628V282.444L88.7051 198.075V240.259V282.444L234.836 366.812V408.997V451.181L88.7051 366.812V324.628" stroke="url(#paint28_linear_19_21)" stroke-width="19.4"/>
<defs>
<linearGradient id="paint0_linear_19_21" x1="276.069" y1="324.011" x2="422.162" y2="324.011" gradientUnits="userSpaceOnUse">
<stop stop-color="#006FFF"/>
<stop offset="1" stop-color="#004299"/>
</linearGradient>
<linearGradient id="paint1_linear_19_21" x1="255.5" y1="42" x2="255.5" y2="249.087" gradientUnits="userSpaceOnUse">
<stop stop-color="#FFCFD0"/>
<stop offset="0.333333" stop-color="#FCFFD2"/>
<stop offset="0.666667" stop-color="#CDFFE4"/>
<stop offset="1" stop-color="#E2EFFF"/>
</linearGradient>
<linearGradient id="paint2_linear_19_21" x1="255.5" y1="42" x2="255.5" y2="249.087" gradientUnits="userSpaceOnUse">
<stop stop-color="#FFCFD0"/>
<stop offset="0.333333" stop-color="#FCFFD2"/>
<stop offset="0.666667" stop-color="#CDFFE4"/>
<stop offset="1" stop-color="#E2EFFF"/>
</linearGradient>
<linearGradient id="paint3_linear_19_21" x1="255.5" y1="42" x2="255.5" y2="249.087" gradientUnits="userSpaceOnUse">
<stop stop-color="#FFCFD0"/>
<stop offset="0.333333" stop-color="#FCFFD2"/>
<stop offset="0.666667" stop-color="#CDFFE4"/>
<stop offset="1" stop-color="#E2EFFF"/>
</linearGradient>
<linearGradient id="paint4_linear_19_21" x1="255.5" y1="42" x2="255.5" y2="249.087" gradientUnits="userSpaceOnUse">
<stop stop-color="#FFCFD0"/>
<stop offset="0.333333" stop-color="#FCFFD2"/>
<stop offset="0.666667" stop-color="#CDFFE4"/>
<stop offset="1" stop-color="#E2EFFF"/>
</linearGradient>
<linearGradient id="paint5_linear_19_21" x1="255.5" y1="42" x2="255.5" y2="249.087" gradientUnits="userSpaceOnUse">
<stop stop-color="#FFCFD0"/>
<stop offset="0.333333" stop-color="#FCFFD2"/>
<stop offset="0.666667" stop-color="#CDFFE4"/>
<stop offset="1" stop-color="#E2EFFF"/>
</linearGradient>
<linearGradient id="paint6_linear_19_21" x1="255.5" y1="42" x2="255.5" y2="249.087" gradientUnits="userSpaceOnUse">
<stop stop-color="#FFCFD0"/>
<stop offset="0.333333" stop-color="#FCFFD2"/>
<stop offset="0.666667" stop-color="#CDFFE4"/>
<stop offset="1" stop-color="#E2EFFF"/>
</linearGradient>
<linearGradient id="paint7_linear_19_21" x1="255.5" y1="42" x2="255.5" y2="249.087" gradientUnits="userSpaceOnUse">
<stop stop-color="#FFCFD0"/>
<stop offset="0.333333" stop-color="#FCFFD2"/>
<stop offset="0.666667" stop-color="#CDFFE4"/>
<stop offset="1" stop-color="#E2EFFF"/>
</linearGradient>
<linearGradient id="paint8_linear_19_21" x1="255.5" y1="42" x2="255.5" y2="249.087" gradientUnits="userSpaceOnUse">
<stop stop-color="#FFCFD0"/>
<stop offset="0.333333" stop-color="#FCFFD2"/>
<stop offset="0.666667" stop-color="#CDFFE4"/>
<stop offset="1" stop-color="#E2EFFF"/>
</linearGradient>
<linearGradient id="paint9_linear_19_21" x1="255.5" y1="42" x2="255.5" y2="249.087" gradientUnits="userSpaceOnUse">
<stop stop-color="#FFCFD0"/>
<stop offset="0.333333" stop-color="#FCFFD2"/>
<stop offset="0.666667" stop-color="#CDFFE4"/>
<stop offset="1" stop-color="#E2EFFF"/>
</linearGradient>
<linearGradient id="paint10_linear_19_21" x1="255.5" y1="42" x2="255.5" y2="249.087" gradientUnits="userSpaceOnUse">
<stop stop-color="#FFCFD0"/>
<stop offset="0.333333" stop-color="#FCFFD2"/>
<stop offset="0.666667" stop-color="#CDFFE4"/>
<stop offset="1" stop-color="#E2EFFF"/>
</linearGradient>
<linearGradient id="paint11_linear_19_21" x1="255.5" y1="42" x2="255.5" y2="249.087" gradientUnits="userSpaceOnUse">
<stop stop-color="#FFCFD0"/>
<stop offset="0.333333" stop-color="#FCFFD2"/>
<stop offset="0.666667" stop-color="#CDFFE4"/>
<stop offset="1" stop-color="#E2EFFF"/>
</linearGradient>
<linearGradient id="paint12_linear_19_21" x1="255.5" y1="42" x2="255.5" y2="249.087" gradientUnits="userSpaceOnUse">
<stop stop-color="#FFCFD0"/>
<stop offset="0.333333" stop-color="#FCFFD2"/>
<stop offset="0.666667" stop-color="#CDFFE4"/>
<stop offset="1" stop-color="#E2EFFF"/>
</linearGradient>
<linearGradient id="paint13_linear_19_21" x1="255.5" y1="42" x2="255.5" y2="249.087" gradientUnits="userSpaceOnUse">
<stop stop-color="#FFCFD0"/>
<stop offset="0.333333" stop-color="#FCFFD2"/>
<stop offset="0.666667" stop-color="#CDFFE4"/>
<stop offset="1" stop-color="#E2EFFF"/>
</linearGradient>
<linearGradient id="paint14_linear_19_21" x1="255.5" y1="42" x2="255.5" y2="249.087" gradientUnits="userSpaceOnUse">
<stop stop-color="#FFCFD0"/>
<stop offset="0.333333" stop-color="#FCFFD2"/>
<stop offset="0.666667" stop-color="#CDFFE4"/>
<stop offset="1" stop-color="#E2EFFF"/>
</linearGradient>
<linearGradient id="paint15_linear_19_21" x1="255.5" y1="42" x2="255.5" y2="249.087" gradientUnits="userSpaceOnUse">
<stop stop-color="#FFCFD0"/>
<stop offset="0.333333" stop-color="#FCFFD2"/>
<stop offset="0.666667" stop-color="#CDFFE4"/>
<stop offset="1" stop-color="#E2EFFF"/>
</linearGradient>
<linearGradient id="paint16_linear_19_21" x1="255.5" y1="42" x2="255.5" y2="249.087" gradientUnits="userSpaceOnUse">
<stop stop-color="#FFCFD0"/>
<stop offset="0.333333" stop-color="#FCFFD2"/>
<stop offset="0.666667" stop-color="#CDFFE4"/>
<stop offset="1" stop-color="#E2EFFF"/>
</linearGradient>
<linearGradient id="paint17_linear_19_21" x1="255.5" y1="42" x2="255.5" y2="249.087" gradientUnits="userSpaceOnUse">
<stop stop-color="#FFCFD0"/>
<stop offset="0.333333" stop-color="#FCFFD2"/>
<stop offset="0.666667" stop-color="#CDFFE4"/>
<stop offset="1" stop-color="#E2EFFF"/>
</linearGradient>
<linearGradient id="paint18_linear_19_21" x1="255.5" y1="42" x2="255.5" y2="249.087" gradientUnits="userSpaceOnUse">
<stop stop-color="#FFCFD0"/>
<stop offset="0.333333" stop-color="#FCFFD2"/>
<stop offset="0.666667" stop-color="#CDFFE4"/>
<stop offset="1" stop-color="#E2EFFF"/>
</linearGradient>
<linearGradient id="paint19_linear_19_21" x1="255.5" y1="42" x2="255.5" y2="249.087" gradientUnits="userSpaceOnUse">
<stop stop-color="#FFCFD0"/>
<stop offset="0.333333" stop-color="#FCFFD2"/>
<stop offset="0.666667" stop-color="#CDFFE4"/>
<stop offset="1" stop-color="#E2EFFF"/>
</linearGradient>
<linearGradient id="paint20_linear_19_21" x1="255.5" y1="42" x2="255.5" y2="249.087" gradientUnits="userSpaceOnUse">
<stop stop-color="#FFCFD0"/>
<stop offset="0.333333" stop-color="#FCFFD2"/>
<stop offset="0.666667" stop-color="#CDFFE4"/>
<stop offset="1" stop-color="#E2EFFF"/>
</linearGradient>
<linearGradient id="paint21_linear_19_21" x1="255.5" y1="42" x2="255.5" y2="249.087" gradientUnits="userSpaceOnUse">
<stop stop-color="#FFCFD0"/>
<stop offset="0.333333" stop-color="#FCFFD2"/>
<stop offset="0.666667" stop-color="#CDFFE4"/>
<stop offset="1" stop-color="#E2EFFF"/>
</linearGradient>
<linearGradient id="paint22_linear_19_21" x1="255.5" y1="42" x2="255.5" y2="249.087" gradientUnits="userSpaceOnUse">
<stop stop-color="#FFCFD0"/>
<stop offset="0.333333" stop-color="#FCFFD2"/>
<stop offset="0.666667" stop-color="#CDFFE4"/>
<stop offset="1" stop-color="#E2EFFF"/>
</linearGradient>
<linearGradient id="paint23_linear_19_21" x1="255.5" y1="42" x2="255.5" y2="249.087" gradientUnits="userSpaceOnUse">
<stop stop-color="#FFCFD0"/>
<stop offset="0.333333" stop-color="#FCFFD2"/>
<stop offset="0.666667" stop-color="#CDFFE4"/>
<stop offset="1" stop-color="#E2EFFF"/>
</linearGradient>
<linearGradient id="paint24_linear_19_21" x1="255.5" y1="42" x2="255.5" y2="249.087" gradientUnits="userSpaceOnUse">
<stop stop-color="#FFCFD0"/>
<stop offset="0.333333" stop-color="#FCFFD2"/>
<stop offset="0.666667" stop-color="#CDFFE4"/>
<stop offset="1" stop-color="#E2EFFF"/>
</linearGradient>
<linearGradient id="paint25_linear_19_21" x1="255.5" y1="42" x2="255.5" y2="249.087" gradientUnits="userSpaceOnUse">
<stop stop-color="#FFCFD0"/>
<stop offset="0.333333" stop-color="#FCFFD2"/>
<stop offset="0.666667" stop-color="#CDFFE4"/>
<stop offset="1" stop-color="#E2EFFF"/>
</linearGradient>
<linearGradient id="paint26_linear_19_21" x1="255.5" y1="42" x2="255.5" y2="249.087" gradientUnits="userSpaceOnUse">
<stop stop-color="#FFCFD0"/>
<stop offset="0.333333" stop-color="#FCFFD2"/>
<stop offset="0.666667" stop-color="#CDFFE4"/>
<stop offset="1" stop-color="#E2EFFF"/>
</linearGradient>
<linearGradient id="paint27_linear_19_21" x1="73" y1="145.543" x2="438" y2="145.543" gradientUnits="userSpaceOnUse">
<stop stop-color="#006FFF"/>
<stop offset="1" stop-color="#004299"/>
</linearGradient>
<linearGradient id="paint28_linear_19_21" x1="88.7051" y1="324.628" x2="234.836" y2="324.628" gradientUnits="userSpaceOnUse">
<stop stop-color="#006FFF"/>
<stop offset="1" stop-color="#004299"/>
</linearGradient>
</defs>
</svg>
