<svg width="32" height="32" viewBox="0 0 32 32" fill="none" xmlns="http://www.w3.org/2000/svg">
<path d="M15.5 0.57734C15.7996 0.40429 16.1668 0.39887 16.4708 0.561105L16.5 0.57734L29.1064 7.85563C29.4158 8.03432 29.6064 8.36445 29.6064 8.7217V23.2783C29.6064 23.6244 29.4275 23.9451 29.135 24.1271L29.1064 24.1444L16.5 31.4227C16.2002 31.5957 15.8331 31.6011 15.5292 31.4389L15.5 31.4227L2.89355 24.1444C2.58415 23.9657 2.39356 23.6356 2.39355 23.2783V8.7217C2.39355 8.37557 2.57242 8.05501 2.86487 7.87288L2.89355 7.85563L15.5 0.57734Z" fill="white" stroke="#006FFF" stroke-width="0.5"/>
<path d="M21.8198 14.9546L26.3852 12.3066L21.8198 20.2505M21.8198 14.9546L17.2544 17.6025V22.8984V28.1943L21.8198 25.5463M21.8198 14.9546V20.2505M21.8198 20.2505L26.3852 22.8984L21.8198 25.5463M21.8198 20.2505V25.5463" stroke="url(#paint0_linear_43_56)" stroke-width="1.2125"/>
<path d="M15.9687 15.5681L17.3945 14.7591L15.9687 13.9502L14.543 14.7591L15.9687 15.5681Z" fill="url(#paint1_linear_43_56)"/>
<path d="M17.3945 13.141L15.9687 12.332L14.543 13.141L15.9687 13.9499L17.3945 13.141Z" fill="url(#paint2_linear_43_56)"/>
<path d="M18.8203 13.9499L20.2462 13.141L18.8203 12.332L17.3945 13.141L18.8203 13.9499Z" fill="url(#paint3_linear_43_56)"/>
<path d="M20.2462 11.5233L18.8203 10.7144L18.4639 10.9166L18.1075 11.1189L17.751 11.321L17.3945 11.5233L18.8203 12.3322L20.2462 11.5233Z" fill="url(#paint4_linear_43_56)"/>
<path d="M20.2461 11.5233L21.6718 12.3322L23.0977 11.5233L21.6718 10.7144L20.2461 11.5233Z" fill="url(#paint5_linear_43_56)"/>
<path d="M23.0977 9.90562L21.6718 9.09668L20.2461 9.90562L21.6718 10.7146L23.0977 9.90562Z" fill="url(#paint6_linear_43_56)"/>
<path d="M24.5234 10.7146L25.9492 9.90562L24.5234 9.09668L23.0977 9.90562L24.5234 10.7146Z" fill="url(#paint7_linear_43_56)"/>
<path d="M25.9492 8.28745L24.5234 7.47852L23.0977 8.28745L24.5234 9.09639L25.9492 8.28745Z" fill="url(#paint8_linear_43_56)"/>
<path d="M20.2461 8.28745L21.6718 9.09639L23.0977 8.28745L21.6718 7.47852L20.2461 8.28745Z" fill="url(#paint9_linear_43_56)"/>
<path d="M23.0977 6.6698L21.6718 5.86084L20.2461 6.6698L21.6718 7.47868L23.0977 6.6698Z" fill="url(#paint10_linear_43_56)"/>
<path d="M18.8203 5.86084L17.3945 6.6698L17.751 6.87199L18.1075 7.07424L18.4639 7.27649L18.8203 7.47868L20.2462 6.6698L18.8203 5.86084Z" fill="url(#paint11_linear_43_56)"/>
<path d="M20.2462 5.05161L18.8203 4.24268L17.3945 5.05161L18.8203 5.86054L20.2462 5.05161Z" fill="url(#paint12_linear_43_56)"/>
<path d="M15.9687 4.24268L14.543 5.05161L15.9687 5.86054L17.3945 5.05161L15.9687 4.24268Z" fill="url(#paint13_linear_43_56)"/>
<path d="M17.3945 3.43393L15.9687 2.625L14.543 3.43393L15.9687 4.24286L17.3945 3.43393Z" fill="url(#paint14_linear_43_56)"/>
<path d="M13.1172 4.24268L11.6914 5.05161L13.1172 5.86054L14.543 5.05161L13.1172 4.24268Z" fill="url(#paint15_linear_43_56)"/>
<path d="M11.6914 6.6698L13.1172 7.47868L13.4737 7.27649L13.8301 7.07424L14.1865 6.87199L14.543 6.6698L13.1172 5.86084L11.6914 6.6698Z" fill="url(#paint16_linear_43_56)"/>
<path d="M10.2656 5.86084L8.83984 6.6698L10.2656 7.47868L11.6913 6.6698L10.2656 5.86084Z" fill="url(#paint17_linear_43_56)"/>
<path d="M8.83984 8.28745L10.2656 9.09639L11.6913 8.28745L10.2656 7.47852L8.83984 8.28745Z" fill="url(#paint18_linear_43_56)"/>
<path d="M7.41406 7.47852L5.98828 8.28745L7.41406 9.09639L8.83988 8.28745L7.41406 7.47852Z" fill="url(#paint19_linear_43_56)"/>
<path d="M5.98828 9.90562L7.41406 10.7146L8.83988 9.90562L7.41406 9.09668L5.98828 9.90562Z" fill="url(#paint20_linear_43_56)"/>
<path d="M11.6913 9.90562L10.2656 9.09668L8.83984 9.90562L10.2656 10.7146L11.6913 9.90562Z" fill="url(#paint21_linear_43_56)"/>
<path d="M8.83984 11.5233L10.2656 12.3322L11.6913 11.5233L10.2656 10.7144L8.83984 11.5233Z" fill="url(#paint22_linear_43_56)"/>
<path d="M13.1172 12.3322L14.543 11.5233L14.1865 11.321L13.8301 11.1189L13.4737 10.9166L13.1172 10.7144L11.6914 11.5233L13.1172 12.3322Z" fill="url(#paint23_linear_43_56)"/>
<path d="M11.6914 13.141L13.1172 13.9499L14.543 13.141L13.1172 12.332L11.6914 13.141Z" fill="url(#paint24_linear_43_56)"/>
<path d="M15.9688 9.09653L17.3945 9.90547L17.751 9.70322L18.1074 9.50103L18.4639 9.29879L18.8203 9.09653L18.4639 8.89435L18.1074 8.6921L17.751 8.48985L17.3945 8.2876L15.9688 9.09653Z" fill="url(#paint25_linear_43_56)"/>
<path d="M15.9688 9.09653L17.3945 9.90547L17.751 9.70322L18.1074 9.50103L18.4639 9.29879L18.8203 9.09653L18.4639 8.89435L18.1074 8.6921L17.751 8.48985L17.3945 8.2876L15.9688 9.09653Z" fill="#E2EFFF"/>
<path d="M15.9688 9.09653L14.543 8.2876L14.1865 8.48985L13.8301 8.6921L13.4736 8.89435L13.1172 9.09653L13.4736 9.29879L13.8301 9.50103L14.1865 9.70322L14.543 9.90547L15.9688 9.09653Z" fill="url(#paint26_linear_43_56)"/>
<path d="M15.9688 9.09653L14.543 8.2876L14.1865 8.48985L13.8301 8.6921L13.4736 8.89435L13.1172 9.09653L13.4736 9.29879L13.8301 9.50103L14.1865 9.70322L14.543 9.90547L15.9688 9.09653Z" fill="#E2EFFF"/>
<path d="M10.2656 5.86072L8.83988 6.66969M10.2656 5.86072L11.6914 6.66969M10.2656 5.86072L11.6914 5.05179M8.83988 6.66969L7.41406 7.47856M8.83988 6.66969L10.2656 7.47856M11.6914 6.66969L13.1172 7.47856M11.6914 6.66969L13.1172 5.86072M11.6914 6.66969L10.2656 7.47856M11.6914 5.05179L13.1172 4.24286M11.6914 5.05179L13.1172 5.86072M21.6719 12.3322L20.2461 13.1411M21.6719 12.3322L20.2461 11.5232M21.6719 12.3322L23.0977 11.5232M20.2461 13.1411L18.8203 13.9501M20.2461 13.1411L18.8203 12.3322M20.2461 11.5232L18.8203 10.7143M20.2461 11.5232L18.8203 12.3322M20.2461 11.5232L21.6719 10.7143M23.0977 11.5232L24.5234 10.7143M23.0977 11.5232L21.6719 10.7143M21.6719 5.86072L23.0977 6.66969M21.6719 5.86072L20.2461 5.05179M21.6719 5.86072L20.2461 6.66969M23.0977 6.66969L24.5234 7.47856M23.0977 6.66969L21.6719 7.47856M20.2461 5.05179L18.8203 4.24286M20.2461 5.05179L18.8203 5.86072M20.2461 6.66969L18.8203 7.47856M20.2461 6.66969L21.6719 7.47856M20.2461 6.66969L18.8203 5.86072M13.1172 4.24286L14.543 3.43393M13.1172 4.24286L14.543 5.05179M14.543 3.43393L15.9688 2.625L17.3945 3.43393M14.543 3.43393L15.9688 4.24286M14.543 5.05179L15.9688 5.86072M14.543 5.05179L15.9688 4.24286M14.543 5.05179L13.1172 5.86072M7.41406 7.47856L5.98828 8.2875M7.41406 7.47856L8.83988 8.2875M5.98828 8.2875L4.5625 9.09644L5.98828 9.90537M5.98828 8.2875L7.41406 9.09644M8.83988 8.2875L10.2656 9.09644M8.83988 8.2875L10.2656 7.47856M8.83988 8.2875L7.41406 9.09644M10.2656 12.3322L11.6914 13.1411M10.2656 12.3322L8.83988 11.5232M10.2656 12.3322L11.6914 11.5232M11.6914 13.1411L13.1172 13.9501M11.6914 13.1411L13.1172 12.3322M8.83988 11.5232L7.41406 10.7143M8.83988 11.5232L10.2656 10.7143M11.6914 11.5232L13.1172 10.7143M11.6914 11.5232L10.2656 10.7143M11.6914 11.5232L13.1172 12.3322M13.1172 13.9501L14.543 14.759M13.1172 13.9501L14.543 13.1411M14.543 14.759L15.9688 15.5679L17.3945 14.759M14.543 14.759L15.9688 13.9501M14.543 13.1411L15.9688 12.3322M14.543 13.1411L15.9688 13.9501M14.543 13.1411L13.1172 12.3322M7.41406 10.7143L5.98828 9.90537M7.41406 10.7143L8.83988 9.90537M5.98828 9.90537L7.41406 9.09644M8.83988 9.90537L10.2656 9.09644M8.83988 9.90537L7.41406 9.09644M8.83988 9.90537L10.2656 10.7143M18.8203 13.9501L17.3945 14.759M18.8203 13.9501L17.3945 13.1411M17.3945 14.759L15.9688 13.9501M17.3945 13.1411L15.9688 12.3322M17.3945 13.1411L15.9688 13.9501M17.3945 13.1411L18.8203 12.3322M24.5234 10.7143L25.9492 9.90537M24.5234 10.7143L23.0977 9.90537M25.9492 9.90537L27.375 9.09644L25.9492 8.2875M25.9492 9.90537L24.5234 9.09644M23.0977 9.90537L21.6719 9.09644M23.0977 9.90537L21.6719 10.7143M23.0977 9.90537L24.5234 9.09644M24.5234 7.47856L25.9492 8.2875M24.5234 7.47856L23.0977 8.2875M25.9492 8.2875L24.5234 9.09644M23.0977 8.2875L21.6719 9.09644M23.0977 8.2875L24.5234 9.09644M23.0977 8.2875L21.6719 7.47856M18.8203 4.24286L17.3945 3.43393M18.8203 4.24286L17.3945 5.05179M17.3945 3.43393L15.9688 4.24286M17.3945 5.05179L15.9688 5.86072M17.3945 5.05179L18.8203 5.86072M17.3945 5.05179L15.9688 4.24286M18.8203 12.3322L17.3945 11.5232M18.8203 12.3322L21.6719 10.7143M13.1172 12.3322L14.543 11.5232M10.2656 10.7143L11.6914 9.90537M10.2656 7.47856L11.6914 8.2875M10.2656 7.47856L13.1172 5.86072M15.9688 9.09644L14.543 8.2875M15.9688 9.09644L17.3945 9.90537M15.9688 9.09644L17.3945 8.2875M15.9688 9.09644L14.543 9.90537M14.543 8.2875L13.1172 7.47856M14.543 8.2875L14.8994 8.08531M14.543 8.2875L14.1865 8.48975M17.3945 9.90537L18.8203 10.7143M17.3945 9.90537L17.751 9.70312M17.3945 8.2875L14.543 9.90537M17.3945 8.2875L18.8203 7.47856M17.3945 8.2875L17.751 8.48975M17.3945 8.2875L17.0381 8.08531M14.543 9.90537L13.1172 10.7143M14.543 9.90537L14.1865 9.70312M14.543 9.90537L14.8994 10.1076M13.1172 7.47856L13.4736 7.27637M13.1172 7.47856L12.7607 7.68081M13.4736 7.27637L14.8994 8.08531M13.4736 7.27637L12.7607 7.68081M13.4736 7.27637L13.8301 7.07412M12.7607 7.68081L14.1865 8.48975M12.7607 7.68081L12.4043 7.88306M14.8994 8.08531L13.1172 9.09644M14.8994 8.08531L15.2559 7.88306M14.1865 8.48975L13.8301 8.692M13.1172 5.86072L14.543 6.66969M18.8203 10.7143L18.4639 10.9166M18.8203 10.7143L19.1768 10.5121M18.4639 10.9166L17.0381 10.1076M18.4639 10.9166L19.1768 10.5121M18.4639 10.9166L18.1074 11.1188M19.1768 10.5121L17.751 9.70312M19.1768 10.5121L19.5332 10.3099M17.751 9.70312L18.8203 9.09644M17.751 9.70312L18.1074 9.50094M17.751 9.70312L17.0381 10.1076M21.6719 10.7143L20.2461 9.90537M21.6719 7.47856L20.2461 8.2875M18.8203 5.86072L17.3945 6.66969M18.8203 9.09644L18.4639 9.29869M18.8203 9.09644L18.4639 8.89425M18.4639 9.29869L18.1074 9.50094M18.4639 9.29869L19.8896 10.1076M18.4639 8.89425L18.1074 8.692M18.4639 8.89425L19.8896 8.08531M15.9688 10.7143L15.6123 10.5121M15.9688 10.7143L16.3252 10.5121M15.9688 10.7143L17.0381 10.1076M15.6123 10.5121L15.2559 10.3099M15.6123 10.5121L14.1865 11.321M16.3252 10.5121L16.6816 10.3099M16.3252 10.5121L17.751 11.321M17.0381 10.1076L16.6816 10.3099M13.1172 9.09644L13.4736 9.29869M13.1172 9.09644L13.4736 8.89425M13.4736 9.29869L13.8301 9.50094M13.4736 9.29869L12.0479 10.1076M13.4736 8.89425L13.8301 8.692M13.4736 8.89425L12.0479 8.08531M13.1172 10.7143L13.4736 10.9166M13.1172 10.7143L12.7607 10.5121M14.1865 9.70312L13.8301 9.50094M14.1865 9.70312L12.7607 10.5121M14.8994 10.1076L15.2559 10.3099M14.8994 10.1076L13.4736 10.9166M18.8203 7.47856L18.4639 7.27637M18.8203 7.47856L19.1768 7.68081M17.751 8.48975L18.1074 8.692M17.751 8.48975L19.1768 7.68081M17.0381 8.08531L16.6816 7.88306M17.0381 8.08531L18.4639 7.27637M15.9688 5.86072L17.3945 6.66969M15.9688 5.86072L14.543 6.66969M17.3945 6.66969L17.751 6.87187M14.543 6.66969L14.1865 6.87187M10.2656 9.09644L11.6914 9.90537M10.2656 9.09644L11.6914 8.2875M11.6914 9.90537L12.0479 10.1076M11.6914 8.2875L12.0479 8.08531M15.9688 12.3322L14.543 11.5232M15.9688 12.3322L17.3945 11.5232M14.543 11.5232L14.1865 11.321M17.3945 11.5232L17.751 11.321M21.6719 9.09644L20.2461 9.90537M21.6719 9.09644L20.2461 8.2875M20.2461 9.90537L19.8896 10.1076M20.2461 8.2875L19.8896 8.08531M12.0479 10.1076L12.4043 10.3099M13.4736 10.9166L13.8301 11.1188M12.7607 10.5121L12.4043 10.3099M14.1865 11.321L13.8301 11.1188M17.751 11.321L18.1074 11.1188M19.8896 10.1076L19.5332 10.3099M19.8896 8.08531L19.5332 7.88306M18.4639 7.27637L18.1074 7.07412M19.1768 7.68081L19.5332 7.88306M17.751 6.87187L16.3252 7.68081M17.751 6.87187L18.1074 7.07412M14.1865 6.87187L15.6123 7.68081M14.1865 6.87187L13.8301 7.07412M12.0479 8.08531L12.4043 7.88306M16.6816 7.88306L16.3252 7.68081M16.6816 7.88306L18.1074 7.07412M16.3252 7.68081L15.9688 7.47856L15.6123 7.68081M18.1074 8.692L19.5332 7.88306M18.1074 9.50094L19.5332 10.3099M16.6816 10.3099L18.1074 11.1188M15.2559 10.3099L13.8301 11.1188M13.8301 9.50094L12.4043 10.3099M13.8301 8.692L12.4043 7.88306M15.2559 7.88306L15.6123 7.68081M15.2559 7.88306L13.8301 7.07412" stroke="url(#paint27_linear_43_56)" stroke-width="0.097"/>
<path d="M14.6771 20.2894V17.6529L5.54395 12.3799V15.0164V17.6529L14.6771 22.9259V25.5625V28.199L5.54395 22.9259V20.2894" stroke="url(#paint28_linear_43_56)" stroke-width="1.2125"/>
<defs>
<linearGradient id="paint0_linear_43_56" x1="17.2544" y1="20.2505" x2="26.3852" y2="20.2505" gradientUnits="userSpaceOnUse">
<stop stop-color="#006FFF"/>
<stop offset="1" stop-color="#004299"/>
</linearGradient>
<linearGradient id="paint1_linear_43_56" x1="15.9687" y1="2.62513" x2="15.9687" y2="15.5681" gradientUnits="userSpaceOnUse">
<stop stop-color="#FFCFD0"/>
<stop offset="0.333333" stop-color="#FCFFD2"/>
<stop offset="0.666667" stop-color="#CDFFE4"/>
<stop offset="1" stop-color="#E2EFFF"/>
</linearGradient>
<linearGradient id="paint2_linear_43_56" x1="15.9687" y1="2.62484" x2="15.9687" y2="15.5678" gradientUnits="userSpaceOnUse">
<stop stop-color="#FFCFD0"/>
<stop offset="0.333333" stop-color="#FCFFD2"/>
<stop offset="0.666667" stop-color="#CDFFE4"/>
<stop offset="1" stop-color="#E2EFFF"/>
</linearGradient>
<linearGradient id="paint3_linear_43_56" x1="15.9688" y1="2.62484" x2="15.9688" y2="15.5678" gradientUnits="userSpaceOnUse">
<stop stop-color="#FFCFD0"/>
<stop offset="0.333333" stop-color="#FCFFD2"/>
<stop offset="0.666667" stop-color="#CDFFE4"/>
<stop offset="1" stop-color="#E2EFFF"/>
</linearGradient>
<linearGradient id="paint4_linear_43_56" x1="15.9688" y1="2.62504" x2="15.9688" y2="15.568" gradientUnits="userSpaceOnUse">
<stop stop-color="#FFCFD0"/>
<stop offset="0.333333" stop-color="#FCFFD2"/>
<stop offset="0.666667" stop-color="#CDFFE4"/>
<stop offset="1" stop-color="#E2EFFF"/>
</linearGradient>
<linearGradient id="paint5_linear_43_56" x1="15.9687" y1="2.62504" x2="15.9687" y2="15.568" gradientUnits="userSpaceOnUse">
<stop stop-color="#FFCFD0"/>
<stop offset="0.333333" stop-color="#FCFFD2"/>
<stop offset="0.666667" stop-color="#CDFFE4"/>
<stop offset="1" stop-color="#E2EFFF"/>
</linearGradient>
<linearGradient id="paint6_linear_43_56" x1="15.9687" y1="2.62524" x2="15.9687" y2="15.5682" gradientUnits="userSpaceOnUse">
<stop stop-color="#FFCFD0"/>
<stop offset="0.333333" stop-color="#FCFFD2"/>
<stop offset="0.666667" stop-color="#CDFFE4"/>
<stop offset="1" stop-color="#E2EFFF"/>
</linearGradient>
<linearGradient id="paint7_linear_43_56" x1="15.9687" y1="2.62524" x2="15.9687" y2="15.5682" gradientUnits="userSpaceOnUse">
<stop stop-color="#FFCFD0"/>
<stop offset="0.333333" stop-color="#FCFFD2"/>
<stop offset="0.666667" stop-color="#CDFFE4"/>
<stop offset="1" stop-color="#E2EFFF"/>
</linearGradient>
<linearGradient id="paint8_linear_43_56" x1="15.9687" y1="2.62495" x2="15.9687" y2="15.5679" gradientUnits="userSpaceOnUse">
<stop stop-color="#FFCFD0"/>
<stop offset="0.333333" stop-color="#FCFFD2"/>
<stop offset="0.666667" stop-color="#CDFFE4"/>
<stop offset="1" stop-color="#E2EFFF"/>
</linearGradient>
<linearGradient id="paint9_linear_43_56" x1="15.9687" y1="2.62495" x2="15.9687" y2="15.5679" gradientUnits="userSpaceOnUse">
<stop stop-color="#FFCFD0"/>
<stop offset="0.333333" stop-color="#FCFFD2"/>
<stop offset="0.666667" stop-color="#CDFFE4"/>
<stop offset="1" stop-color="#E2EFFF"/>
</linearGradient>
<linearGradient id="paint10_linear_43_56" x1="15.9687" y1="2.62512" x2="15.9687" y2="15.5681" gradientUnits="userSpaceOnUse">
<stop stop-color="#FFCFD0"/>
<stop offset="0.333333" stop-color="#FCFFD2"/>
<stop offset="0.666667" stop-color="#CDFFE4"/>
<stop offset="1" stop-color="#E2EFFF"/>
</linearGradient>
<linearGradient id="paint11_linear_43_56" x1="15.9688" y1="2.62512" x2="15.9688" y2="15.5681" gradientUnits="userSpaceOnUse">
<stop stop-color="#FFCFD0"/>
<stop offset="0.333333" stop-color="#FCFFD2"/>
<stop offset="0.666667" stop-color="#CDFFE4"/>
<stop offset="1" stop-color="#E2EFFF"/>
</linearGradient>
<linearGradient id="paint12_linear_43_56" x1="15.9688" y1="2.62481" x2="15.9688" y2="15.5677" gradientUnits="userSpaceOnUse">
<stop stop-color="#FFCFD0"/>
<stop offset="0.333333" stop-color="#FCFFD2"/>
<stop offset="0.666667" stop-color="#CDFFE4"/>
<stop offset="1" stop-color="#E2EFFF"/>
</linearGradient>
<linearGradient id="paint13_linear_43_56" x1="15.9687" y1="2.62481" x2="15.9687" y2="15.5677" gradientUnits="userSpaceOnUse">
<stop stop-color="#FFCFD0"/>
<stop offset="0.333333" stop-color="#FCFFD2"/>
<stop offset="0.666667" stop-color="#CDFFE4"/>
<stop offset="1" stop-color="#E2EFFF"/>
</linearGradient>
<linearGradient id="paint14_linear_43_56" x1="15.9687" y1="2.625" x2="15.9687" y2="15.5679" gradientUnits="userSpaceOnUse">
<stop stop-color="#FFCFD0"/>
<stop offset="0.333333" stop-color="#FCFFD2"/>
<stop offset="0.666667" stop-color="#CDFFE4"/>
<stop offset="1" stop-color="#E2EFFF"/>
</linearGradient>
<linearGradient id="paint15_linear_43_56" x1="15.9688" y1="2.62481" x2="15.9688" y2="15.5677" gradientUnits="userSpaceOnUse">
<stop stop-color="#FFCFD0"/>
<stop offset="0.333333" stop-color="#FCFFD2"/>
<stop offset="0.666667" stop-color="#CDFFE4"/>
<stop offset="1" stop-color="#E2EFFF"/>
</linearGradient>
<linearGradient id="paint16_linear_43_56" x1="15.9688" y1="2.62512" x2="15.9688" y2="15.5681" gradientUnits="userSpaceOnUse">
<stop stop-color="#FFCFD0"/>
<stop offset="0.333333" stop-color="#FCFFD2"/>
<stop offset="0.666667" stop-color="#CDFFE4"/>
<stop offset="1" stop-color="#E2EFFF"/>
</linearGradient>
<linearGradient id="paint17_linear_43_56" x1="15.9687" y1="2.62512" x2="15.9687" y2="15.5681" gradientUnits="userSpaceOnUse">
<stop stop-color="#FFCFD0"/>
<stop offset="0.333333" stop-color="#FCFFD2"/>
<stop offset="0.666667" stop-color="#CDFFE4"/>
<stop offset="1" stop-color="#E2EFFF"/>
</linearGradient>
<linearGradient id="paint18_linear_43_56" x1="15.9687" y1="2.62495" x2="15.9687" y2="15.5679" gradientUnits="userSpaceOnUse">
<stop stop-color="#FFCFD0"/>
<stop offset="0.333333" stop-color="#FCFFD2"/>
<stop offset="0.666667" stop-color="#CDFFE4"/>
<stop offset="1" stop-color="#E2EFFF"/>
</linearGradient>
<linearGradient id="paint19_linear_43_56" x1="15.9688" y1="2.62495" x2="15.9688" y2="15.5679" gradientUnits="userSpaceOnUse">
<stop stop-color="#FFCFD0"/>
<stop offset="0.333333" stop-color="#FCFFD2"/>
<stop offset="0.666667" stop-color="#CDFFE4"/>
<stop offset="1" stop-color="#E2EFFF"/>
</linearGradient>
<linearGradient id="paint20_linear_43_56" x1="15.9688" y1="2.62524" x2="15.9688" y2="15.5682" gradientUnits="userSpaceOnUse">
<stop stop-color="#FFCFD0"/>
<stop offset="0.333333" stop-color="#FCFFD2"/>
<stop offset="0.666667" stop-color="#CDFFE4"/>
<stop offset="1" stop-color="#E2EFFF"/>
</linearGradient>
<linearGradient id="paint21_linear_43_56" x1="15.9687" y1="2.62524" x2="15.9687" y2="15.5682" gradientUnits="userSpaceOnUse">
<stop stop-color="#FFCFD0"/>
<stop offset="0.333333" stop-color="#FCFFD2"/>
<stop offset="0.666667" stop-color="#CDFFE4"/>
<stop offset="1" stop-color="#E2EFFF"/>
</linearGradient>
<linearGradient id="paint22_linear_43_56" x1="15.9687" y1="2.62504" x2="15.9687" y2="15.568" gradientUnits="userSpaceOnUse">
<stop stop-color="#FFCFD0"/>
<stop offset="0.333333" stop-color="#FCFFD2"/>
<stop offset="0.666667" stop-color="#CDFFE4"/>
<stop offset="1" stop-color="#E2EFFF"/>
</linearGradient>
<linearGradient id="paint23_linear_43_56" x1="15.9688" y1="2.62504" x2="15.9688" y2="15.568" gradientUnits="userSpaceOnUse">
<stop stop-color="#FFCFD0"/>
<stop offset="0.333333" stop-color="#FCFFD2"/>
<stop offset="0.666667" stop-color="#CDFFE4"/>
<stop offset="1" stop-color="#E2EFFF"/>
</linearGradient>
<linearGradient id="paint24_linear_43_56" x1="15.9688" y1="2.62484" x2="15.9688" y2="15.5678" gradientUnits="userSpaceOnUse">
<stop stop-color="#FFCFD0"/>
<stop offset="0.333333" stop-color="#FCFFD2"/>
<stop offset="0.666667" stop-color="#CDFFE4"/>
<stop offset="1" stop-color="#E2EFFF"/>
</linearGradient>
<linearGradient id="paint25_linear_43_56" x1="15.9688" y1="2.6251" x2="15.9688" y2="15.568" gradientUnits="userSpaceOnUse">
<stop stop-color="#FFCFD0"/>
<stop offset="0.333333" stop-color="#FCFFD2"/>
<stop offset="0.666667" stop-color="#CDFFE4"/>
<stop offset="1" stop-color="#E2EFFF"/>
</linearGradient>
<linearGradient id="paint26_linear_43_56" x1="15.9687" y1="2.6251" x2="15.9687" y2="15.568" gradientUnits="userSpaceOnUse">
<stop stop-color="#FFCFD0"/>
<stop offset="0.333333" stop-color="#FCFFD2"/>
<stop offset="0.666667" stop-color="#CDFFE4"/>
<stop offset="1" stop-color="#E2EFFF"/>
</linearGradient>
<linearGradient id="paint27_linear_43_56" x1="4.5625" y1="9.09644" x2="27.375" y2="9.09644" gradientUnits="userSpaceOnUse">
<stop stop-color="#006FFF"/>
<stop offset="1" stop-color="#004299"/>
</linearGradient>
<linearGradient id="paint28_linear_43_56" x1="5.54395" y1="20.2894" x2="14.6771" y2="20.2894" gradientUnits="userSpaceOnUse">
<stop stop-color="#006FFF"/>
<stop offset="1" stop-color="#004299"/>
</linearGradient>
</defs>
</svg>
